# xmcd
#
# Track frame offsets: 
#        150
#        39263
#        73174
#        187973
#        214316
#        235473
#
# Disc length: 3635 seconds
#
# Revision: 0
# Processed by: cddbd v1.5.2PL0 Copyright (c) Steve Scherf et al.
# Submitted via: ExactAudioCopyFreeDBPlugin 1.0
#
DISCID=540e3106
DTITLE=Chamber Orchestra of Bryn Mawr, Heidi Jacob - The Distand Nativ
DTITLE=e Voice
DYEAR=1998
DGENRE=Classical
TTITLE0=Scherzo from New World Symphony
TTITLE1=Love Song from Indian Suite
TTITLE2=Indianishe Fantasie, op. 44
TTITLE3=Scenes from Inidan Country I. Inovcation and Dance of the Moun
TTITLE3=tains
TTITLE4=II. Raven Dance (Beloved Emblem)
TTITLE5=III. Old Petitions (Crying for Justice)
EXTD=
EXTT0=
EXTT1=
EXTT2=
EXTT3=
EXTT4=
EXTT5=
PLAYORDER=
